<svg xmlns="http://www.w3.org/2000/svg" xmlns:xlink="http://www.w3.org/1999/xlink" width="500" zoomAndPan="magnify" viewBox="0 0 375 374.999991" height="500" preserveAspectRatio="xMidYMid meet" version="1.0"><defs><g/></defs><g fill="#000000" fill-opacity="1"><g transform="translate(113.452409, 205.124987)"><g><path d="M 21.25 -18.296875 C 23.6875 -17.765625 25.53125 -16.804688 26.78125 -15.421875 C 28.03125 -14.035156 28.65625 -12.160156 28.65625 -9.796875 C 28.65625 -7.796875 28.21875 -6.117188 27.34375 -4.765625 C 26.476562 -3.421875 25.351562 -2.375 23.96875 -1.625 C 22.59375 -0.875 21.101562 -0.398438 19.5 -0.203125 C 18.726562 -0.0976562 18.039062 -0.0351562 17.4375 -0.015625 C 16.84375 -0.00390625 16.179688 0 15.453125 0 L 4.953125 0 L 4.953125 -34.5 L 14.546875 -34.5 C 15.316406 -34.5 16.007812 -34.488281 16.625 -34.46875 C 17.238281 -34.457031 17.960938 -34.414062 18.796875 -34.34375 C 21.460938 -34.050781 23.5625 -33.203125 25.09375 -31.796875 C 26.632812 -30.398438 27.40625 -28.484375 27.40625 -26.046875 C 27.40625 -23.953125 26.84375 -22.269531 25.71875 -21 C 24.601562 -19.726562 23.113281 -18.828125 21.25 -18.296875 Z M 8.046875 -31.90625 L 8.046875 -19.25 L 15.296875 -19.25 C 16.097656 -19.25 17.015625 -19.300781 18.046875 -19.40625 C 19.816406 -19.601562 21.257812 -20.207031 22.375 -21.21875 C 23.488281 -22.238281 24.046875 -23.734375 24.046875 -25.703125 C 24.046875 -27.796875 23.421875 -29.3125 22.171875 -30.25 C 20.921875 -31.1875 19.429688 -31.71875 17.703125 -31.84375 C 17.203125 -31.882812 16.707031 -31.90625 16.21875 -31.90625 C 15.738281 -31.90625 15.25 -31.90625 14.75 -31.90625 Z M 18.5 -2.65625 C 19.726562 -2.75 20.859375 -3.050781 21.890625 -3.5625 C 22.929688 -4.082031 23.765625 -4.832031 24.390625 -5.8125 C 25.023438 -6.800781 25.34375 -8.03125 25.34375 -9.5 C 25.34375 -11.5625 24.785156 -13.203125 23.671875 -14.421875 C 22.554688 -15.640625 20.847656 -16.347656 18.546875 -16.546875 C 17.984375 -16.617188 17.492188 -16.660156 17.078125 -16.671875 C 16.660156 -16.691406 16.25 -16.703125 15.84375 -16.703125 L 8.046875 -16.703125 L 8.046875 -2.59375 L 16.15625 -2.59375 C 16.550781 -2.59375 16.957031 -2.59375 17.375 -2.59375 C 17.789062 -2.59375 18.164062 -2.613281 18.5 -2.65625 Z M 18.5 -2.65625 "/></g></g></g><g fill="#000000" fill-opacity="1"><g transform="translate(151.64767, 205.124987)"><g><path d="M 27.296875 -2.546875 L 27.296875 0 L 4.953125 0 L 4.953125 -34.5 L 26.796875 -34.5 L 26.796875 -31.953125 L 8.046875 -31.953125 L 8.046875 -18.546875 L 25.5 -18.546875 L 25.5 -15.953125 L 8.046875 -15.953125 L 8.046875 -2.546875 Z M 27.296875 -2.546875 "/></g></g></g><g fill="#000000" fill-opacity="1"><g transform="translate(188.04321, 205.124987)"><g><path d="M 30.59375 0 L 25.84375 0 L 7.90625 -31.5 C 7.96875 -29.363281 8.003906 -27.085938 8.015625 -24.671875 C 8.035156 -22.253906 8.046875 -19.960938 8.046875 -17.796875 L 8.046875 0 L 4.953125 0 L 4.953125 -34.5 L 9.65625 -34.5 L 27.65625 -3 C 27.613281 -5.164062 27.578125 -7.457031 27.546875 -9.875 C 27.515625 -12.289062 27.5 -14.566406 27.5 -16.703125 L 27.5 -34.5 L 30.546875 -34.5 Z M 30.59375 0 "/></g></g></g><g fill="#000000" fill-opacity="1"><g transform="translate(230.037886, 205.124987)"><g><path d="M 23.09375 -12.65625 L 9.34375 -12.65625 L 4.90625 0 L 1.59375 0 L 14.34375 -34.5 L 18.5 -34.5 L 30.953125 0 L 27.59375 0 Z M 10.25 -15.25 L 22.203125 -15.25 L 16.34375 -32 Z M 10.25 -15.25 "/></g></g></g></svg>